<mxfile host="app.diagrams.net" modified="2023-05-02T08:50:06.959Z" agent="Mozilla/5.0 (Windows NT 10.0; Win64; x64) AppleWebKit/537.36 (KHTML, like Gecko) Chrome/111.0.0.0 Safari/537.36" version="21.2.4" etag="bVybGIVlJsM8LFGEyxZr" type="github">
  <diagram name="第 1 页" id="ziwcW0tuoBKeACcgus_D">
    <mxGraphModel>
      <root>
        <mxCell id="0" />
        <mxCell id="1" parent="0" />
      </root>
    </mxGraphModel>
  </diagram>
</mxfile>
